<svg id="Layer_1" data-name="Layer 1" xmlns="http://www.w3.org/2000/svg" viewBox="0 0 96 79.14"><defs><style>.cls-1{fill:#3180f1;}</style></defs><title>customize</title><rect class="cls-1" x="8.66" y="17.07" width="6.33" height="5"/><rect class="cls-1" x="40.33" y="17.07" width="47" height="5"/><path class="cls-1" d="M35.41,30.82H19.91a3.5,3.5,0,0,1-3.5-3.5V11.82a3.5,3.5,0,0,1,3.5-3.5h15.5a3.5,3.5,0,0,1,3.5,3.5v15.5A3.5,3.5,0,0,1,35.41,30.82Zm-15.5-19.5a.51.51,0,0,0-.5.5v15.5a.51.51,0,0,0,.5.5h15.5a.5.5,0,0,0,.5-.5V11.82a.5.5,0,0,0-.5-.5Z"/><rect class="cls-1" x="8.66" y="37.07" width="47.17" height="5"/><rect class="cls-1" x="81" y="37.07" width="6.33" height="5"/><path class="cls-1" d="M76.16,50.82H60.66a3.5,3.5,0,0,1-3.5-3.5V31.82a3.5,3.5,0,0,1,3.5-3.5h15.5a3.5,3.5,0,0,1,3.5,3.5v15.5A3.5,3.5,0,0,1,76.16,50.82Zm-15.5-19.5a.51.51,0,0,0-.5.5v15.5a.51.51,0,0,0,.5.5h15.5a.5.5,0,0,0,.5-.5V31.82a.5.5,0,0,0-.5-.5Z"/><rect class="cls-1" x="8.66" y="57.07" width="18" height="5"/><rect class="cls-1" x="52.33" y="57.07" width="35" height="5"/><path class="cls-1" d="M47.25,70.82H31.75a3.5,3.5,0,0,1-3.5-3.5V51.82a3.5,3.5,0,0,1,3.5-3.5h15.5a3.5,3.5,0,0,1,3.5,3.5v15.5A3.5,3.5,0,0,1,47.25,70.82Zm-15.5-19.5a.51.51,0,0,0-.5.5v15.5a.51.51,0,0,0,.5.5h15.5a.51.51,0,0,0,.5-.5V51.82a.51.51,0,0,0-.5-.5Z"/></svg>