<svg id="Layer_1" data-name="Layer 1" xmlns="http://www.w3.org/2000/svg" viewBox="0 0 96 79.14"><defs><style>.cls-1{fill:#425bee;}</style></defs><title>feedback</title><path class="cls-1" d="M52.84,69.69l2.9-15.47H36.59A11.3,11.3,0,0,1,25.3,42.93V20.68A11.3,11.3,0,0,1,36.59,9.39H74.23a11.31,11.31,0,0,1,11.3,11.29V42.93a11.31,11.31,0,0,1-11.3,11.29H71.1ZM36.59,12.81a7.88,7.88,0,0,0-7.87,7.87V42.93a7.88,7.88,0,0,0,7.87,7.87H59.87L58,60.85,69.84,50.8h4.39a7.89,7.89,0,0,0,7.88-7.87V20.68a7.89,7.89,0,0,0-7.88-7.87Z"/><path class="cls-1" d="M21.73,69.75l-8.42-6.63h-2a7.62,7.62,0,0,1-7.61-7.6V41a7.62,7.62,0,0,1,7.61-7.6H23.58v2.74H11.34A4.87,4.87,0,0,0,6.47,41V55.52a4.87,4.87,0,0,0,4.87,4.86h2.92L20,64.87l1-4.49H35.83a4.87,4.87,0,0,0,4.87-4.86h2.73a7.61,7.61,0,0,1-7.6,7.6H23.13Z"/></svg>