<svg id="Layer_1" data-name="Layer 1" xmlns="http://www.w3.org/2000/svg" viewBox="0 0 57.82 47.98"><defs><style>.cls-1{fill:#e8e8e8;}</style></defs><title>quote</title><path class="cls-1" d="M28.14,12.51C23,14.89,17.5,19.65,15.82,24.27a2.73,2.73,0,0,1,1.12-.14c3.64,0,6.72,2.8,6.72,7.14a9.69,9.69,0,0,1-9.52,9.38c-4.48,0-8.4-3.08-8.4-9.1,0-9.38,8-19.46,17.5-24.22Zm23.94,0c-5,2.38-10.5,7.14-12.32,11.76A3.88,3.88,0,0,1,41,24.13c3.64,0,6.72,2.8,6.72,7.14a9.69,9.69,0,0,1-9.52,9.38c-4.48,0-8.4-3.08-8.4-9.1,0-9.38,7.84-19.46,17.36-24.22Z"/></svg>