<svg id="Layer_1" data-name="Layer 1" xmlns="http://www.w3.org/2000/svg" viewBox="0 0 1728 2592"><defs><style>.cls-1{fill:#231f20;}.cls-2{fill:#fff;stroke:#231f20;stroke-miterlimit:10;}.cls-3{fill:#3180f1;}</style></defs><title>security</title><path class="cls-1" d="M269.5,401.47a11.19,11.19,0,1,0-16.27,10v11.39a5.09,5.09,0,1,0,10.17,0V411.43A11.17,11.17,0,0,0,269.5,401.47Z"/><path class="cls-2" d="M95,220.33c26.87-13.38,56.67-15.06,90.67,0v90H95Z"/><path class="cls-1" d="M293,362.46h-5.3V345A29.34,29.34,0,0,0,229,345v17.46h-5.3a12,12,0,0,0-12,12v69.28a12,12,0,0,0,12,12H293a12,12,0,0,0,12-12V374.46A12,12,0,0,0,293,362.46ZM241,345a17.34,17.34,0,0,1,34.67,0v17.46H241Zm-17.3,98.74V374.46H293v69.28Z"/><rect class="cls-3" x="379.33" y="258.5" width="6.33" height="5"/><rect class="cls-3" x="411" y="258.5" width="47" height="5"/><path class="cls-3" d="M406.08,272.25h-15.5a3.5,3.5,0,0,1-3.5-3.5v-15.5a3.5,3.5,0,0,1,3.5-3.5h15.5a3.5,3.5,0,0,1,3.5,3.5v15.5A3.5,3.5,0,0,1,406.08,272.25Zm-15.5-19.5a.51.51,0,0,0-.5.5v15.5a.51.51,0,0,0,.5.5h15.5a.51.51,0,0,0,.5-.5v-15.5a.51.51,0,0,0-.5-.5Z"/><rect class="cls-3" x="379.33" y="278.5" width="47.17" height="5"/><rect class="cls-3" x="451.67" y="278.5" width="6.33" height="5"/><path class="cls-3" d="M446.83,292.25h-15.5a3.5,3.5,0,0,1-3.5-3.5v-15.5a3.5,3.5,0,0,1,3.5-3.5h15.5a3.5,3.5,0,0,1,3.5,3.5v15.5A3.5,3.5,0,0,1,446.83,292.25Zm-15.5-19.5a.51.51,0,0,0-.5.5v15.5a.51.51,0,0,0,.5.5h15.5a.51.51,0,0,0,.5-.5v-15.5a.51.51,0,0,0-.5-.5Z"/><rect class="cls-3" x="379.33" y="298.5" width="18" height="5"/><rect class="cls-3" x="423" y="298.5" width="35" height="5"/><path class="cls-3" d="M417.92,312.25h-15.5a3.5,3.5,0,0,1-3.5-3.5v-15.5a3.5,3.5,0,0,1,3.5-3.5h15.5a3.5,3.5,0,0,1,3.5,3.5v15.5A3.5,3.5,0,0,1,417.92,312.25Zm-15.5-19.5a.51.51,0,0,0-.5.5v15.5a.51.51,0,0,0,.5.5h15.5a.51.51,0,0,0,.5-.5v-15.5a.51.51,0,0,0-.5-.5Z"/></svg>