<svg id="Layer_1" data-name="Layer 1" xmlns="http://www.w3.org/2000/svg" viewBox="0 0 96 79.14"><defs><style>.cls-1{fill:#12bdf4;}</style></defs><title>security</title><path class="cls-1" d="M53,46.62a5,5,0,1,0-7.27,4.45v5.1a2.27,2.27,0,1,0,4.54,0v-5.1A5,5,0,0,0,53,46.62Z"/><path class="cls-1" d="M63.49,29.18H61.12V21.37a13.12,13.12,0,0,0-26.24,0v7.81H32.51a5.36,5.36,0,0,0-5.36,5.36v31a5.37,5.37,0,0,0,5.36,5.37h31a5.37,5.37,0,0,0,5.36-5.37v-31A5.36,5.36,0,0,0,63.49,29.18ZM40.25,21.37a7.75,7.75,0,1,1,15.5,0v7.81H40.25ZM32.51,65.52v-31h31v31Z"/></svg>